<svg width="40" height="40" viewBox="0 0 40 40" fill="none" xmlns="http://www.w3.org/2000/svg">
<path fill-rule="evenodd" clip-rule="evenodd" d="M4 20C4 11.1634 11.1634 4 20 4C28.8366 4 36 11.1634 36 20C36 28.8366 28.8366 36 20 36C11.1634 36 4 28.8366 4 20ZM15.3066 17.2519H11.6807V28.1464H15.3066V17.2519ZM15.546 13.8818C15.5224 12.8136 14.7586 12 13.5182 12C12.2777 12 11.4668 12.8136 11.4668 13.8818C11.4668 14.9279 12.2538 15.7649 13.4711 15.7649H13.4943C14.7586 15.7649 15.546 14.9279 15.546 13.8818ZM28.384 21.8998C28.384 18.5535 26.5952 16.9961 24.2091 16.9961C22.284 16.9961 21.4221 18.0535 20.9408 18.7953V17.2522H17.3145C17.3622 18.2745 17.3145 28.1467 17.3145 28.1467H20.9408V22.0623C20.9408 21.7367 20.9644 21.4119 21.0602 21.1788C21.3223 20.5283 21.919 19.8548 22.9207 19.8548C24.2333 19.8548 24.758 20.8538 24.758 22.3178V28.1464H28.3838L28.384 21.8998Z" fill="white"/>
</svg>
