<svg width="400" height="400" viewBox="0 0 400 400" fill="none" xmlns="http://www.w3.org/2000/svg">
<rect x="25" y="25" width="350" height="350" rx="50" fill="#3C3C3C"/>
<rect x="25" y="25" width="350" height="350" rx="50" fill="url(#paint0_radial)"/>
<g filter="url(#filter0_d)">
<path d="M181.125 205.75H173.031V242H167.562V235.406C163.375 237.906 158.698 239.156 153.531 239.156C148.135 239.156 143.375 237.427 139.25 233.969C137.479 232.49 134.24 228.802 129.531 222.906L133.062 219.375C133.771 220.188 134.865 221.396 136.344 223C138.26 221.917 139.219 220.302 139.219 218.156V205.75H126.938V200.75H181.125V205.75ZM167.531 230.031V228.469C165.281 229.802 163.052 230.469 160.844 230.469C157.969 230.469 155.562 229.625 153.625 227.938C151.562 226.146 150.531 223.771 150.531 220.812C150.531 218.125 151.344 215.844 152.969 213.969C154.698 211.969 156.948 210.969 159.719 210.969C160.49 210.969 161.427 211.146 162.531 211.5V216C161.927 215.75 161.25 215.625 160.5 215.625C158.896 215.625 157.615 216.104 156.656 217.062C155.698 218 155.219 219.271 155.219 220.875C155.219 222.354 155.812 223.573 157 224.531C158.125 225.427 159.438 225.875 160.938 225.875C163.25 225.875 165.448 225.198 167.531 223.844V205.75H144.719V216.938C144.719 219.667 144.479 221.594 144 222.719C143.312 224.281 141.812 225.708 139.5 227C141.021 229.167 142.969 230.896 145.344 232.188C147.906 233.583 150.635 234.281 153.531 234.281C159.281 234.281 163.948 232.865 167.531 230.031ZM219.5 205.75H211.406V242H205.906V232.031C202.448 234.719 198.875 236.062 195.188 236.062C191.771 236.062 188.844 234.865 186.406 232.469C183.99 230.073 182.781 227.167 182.781 223.75C182.781 219.917 184.344 216.896 187.469 214.688C190.094 212.854 193.156 211.938 196.656 211.938C197.49 211.938 198.375 212.042 199.312 212.25V216.844C198.521 216.615 197.385 216.5 195.906 216.5C194.365 216.5 193.094 216.844 192.094 217.531L202.281 228.875C203.385 228.208 204.594 227.281 205.906 226.094V205.75H180.312V200.75H219.5V205.75ZM199.875 230.25L189.875 218.906C188.458 220.115 187.75 221.823 187.75 224.031C187.75 226.115 188.562 227.865 190.188 229.281C191.75 230.635 193.594 231.312 195.719 231.312C197.24 231.312 198.625 230.958 199.875 230.25ZM257 202.438L253.812 204.938C249.167 199.396 246.281 196.083 245.156 195C241.094 191.062 237.406 189.094 234.094 189.094C231.927 189.094 230.073 189.688 228.531 190.875C226.885 192.167 226.062 193.875 226.062 196C226.062 197.917 226.99 199.5 228.844 200.75H239.5V205.75H231.469V242H225.969V205.75H218.688V200.75H222C221.208 199.271 220.812 197.635 220.812 195.844C220.812 192.135 222.073 189.229 224.594 187.125C226.948 185.146 230.01 184.156 233.781 184.156C238.406 184.156 242.906 186.25 247.281 190.438C249.281 192.354 252.521 196.354 257 202.438ZM269.5 205.75H258.125V214.938C258.125 218.479 257.844 221.094 257.281 222.781C256.302 225.698 254.406 227.156 251.594 227.156L264.188 241.906L259.938 245.5L239.906 222.125L244.188 218.562L247.594 222.562C247.76 222.75 248.094 222.844 248.594 222.844C251.281 222.844 252.625 220.708 252.625 216.438V205.75H238.688V200.75H269.5V205.75ZM312.875 205.75H304.781V242H299.281V230.875C295.99 232.979 292.365 234.031 288.406 234.031C281.927 234.031 276.24 229.99 271.344 221.906C271.927 221.01 272.698 219.885 273.656 218.531C274.802 218.969 275.917 219.188 277 219.188C279.125 219.188 280.823 218.594 282.094 217.406C283.365 216.198 284 214.573 284 212.531C284 211.219 283.49 209.792 282.469 208.25C281.365 206.583 280.208 205.75 279 205.75H268.688V200.75H312.875V205.75ZM299.281 224.531V205.75H286.844C288.698 207.646 289.625 209.927 289.625 212.594C289.625 215.615 288.552 218.219 286.406 220.406C284.26 222.573 281.656 223.656 278.594 223.656C279.427 224.969 280.833 226.115 282.812 227.094C284.792 228.052 286.677 228.531 288.469 228.531C292.323 228.531 295.927 227.198 299.281 224.531ZM329.562 205.75H321.469V242H315.969V205.75H312.062V200.75H329.562V205.75Z" fill="url(#paint1_linear)"/>
</g>
<g filter="url(#filter1_i)">
<path d="M66.6 158.208V159.072H56.76V192H55.8V159.072H45.96V158.208H66.6ZM82.7629 165.504C85.8029 165.504 88.2989 166.448 90.2509 168.336C92.2029 170.224 93.1789 173.072 93.1789 176.88V192H92.2669V176.784C92.2669 173.392 91.4189 170.816 89.7229 169.056C88.0269 167.264 85.7069 166.368 82.7629 166.368C79.6909 166.368 77.2269 167.376 75.3709 169.392C73.5149 171.376 72.5869 174.32 72.5869 178.224V192H71.6269V156.48H72.5869V172.896C73.1949 170.496 74.4109 168.672 76.2349 167.424C78.0589 166.144 80.2349 165.504 82.7629 165.504ZM112.391 191.472C115.303 191.472 117.751 190.736 119.735 189.264C121.719 187.792 122.919 185.776 123.335 183.216H124.295C123.847 185.936 122.567 188.144 120.455 189.84C118.375 191.504 115.687 192.336 112.391 192.336C109.991 192.336 107.847 191.808 105.959 190.752C104.071 189.696 102.583 188.16 101.495 186.144C100.439 184.128 99.9113 181.76 99.9113 179.04C99.9113 176.32 100.439 173.952 101.495 171.936C102.583 169.92 104.071 168.384 105.959 167.328C107.847 166.272 109.991 165.744 112.391 165.744C114.919 165.744 117.079 166.288 118.871 167.376C120.663 168.432 122.007 169.808 122.903 171.504C123.831 173.2 124.295 174.992 124.295 176.88C124.295 178.032 124.279 178.896 124.247 179.472H100.871C100.903 182.128 101.447 184.352 102.503 186.144C103.591 187.936 104.999 189.28 106.727 190.176C108.455 191.04 110.343 191.472 112.391 191.472ZM112.391 166.608C110.343 166.608 108.455 167.056 106.727 167.952C104.999 168.816 103.591 170.144 102.503 171.936C101.447 173.728 100.903 175.952 100.871 178.608H123.431C123.591 175.952 123.159 173.728 122.135 171.936C121.143 170.144 119.767 168.816 118.007 167.952C116.279 167.056 114.407 166.608 112.391 166.608Z" fill="white"/>
</g>
<path d="M322.17 170.061L319.233 173.895C319.233 173.896 319.233 173.897 319.232 173.898C319.232 173.9 319.231 173.9 319.231 173.901C319.23 173.902 319.229 173.903 319.228 173.903C319.227 173.903 319.225 173.904 319.224 173.904L309.715 186.316L297.26 170.061L275 141H299.901L316.488 162.653C316.496 162.661 316.505 162.661 316.505 162.67L322.17 170.061Z" fill="url(#paint2_linear)"/>
<path d="M309.715 186.316L309.332 186.82L308.547 187.838C308.539 187.846 308.539 187.855 308.53 187.863L303.754 194.103L299.901 199.131H275L277.074 196.423C277.075 196.417 277.078 196.411 277.083 196.407H277.092L292.885 175.77H292.894V175.762L292.902 175.754L293.434 175.056L296.72 170.76L297.26 170.062L309.715 186.316Z" fill="url(#paint3_linear)"/>
<g style="mix-blend-mode:multiply" opacity="0.15">
<g style="mix-blend-mode:multiply" opacity="0.15">
<path d="M309.716 186.316L309.332 186.82L308.548 187.838C308.539 187.846 308.539 187.855 308.53 187.863L303.754 194.103L303.449 193.539L293.434 175.056L296.72 170.76L297.261 170.062L309.716 186.316Z" fill="black"/>
</g>
</g>
<g style="mix-blend-mode:multiply" opacity="0.25">
<g style="mix-blend-mode:multiply" opacity="0.25">
<path d="M319.224 173.904L309.715 186.316L309.332 186.82L309.21 186.669C307.728 184.811 306.229 182.969 304.765 181.086C303.292 179.219 301.801 177.361 300.354 175.469L296.72 170.76L297.26 170.062L275 141C276.569 142.799 278.085 144.641 279.611 146.466C281.153 148.29 282.644 150.149 284.152 151.99C287.141 155.699 290.102 159.426 293.033 163.174L297.391 168.825L301.714 174.501C303.161 176.393 304.564 178.31 305.994 180.21C307.257 181.9 308.495 183.607 309.741 185.306L311.685 182.918C312.504 181.909 313.332 180.891 314.178 179.891C315.86 177.889 317.499 175.88 319.224 173.904Z" fill="black"/>
</g>
</g>
<g style="mix-blend-mode:multiply" opacity="0.25">
<g style="mix-blend-mode:multiply" opacity="0.25">
<path d="M308.53 187.862L303.754 194.102L299.901 199.13H275C277.074 198.903 279.149 198.76 281.223 198.642C282.26 198.584 283.298 198.533 284.335 198.499C285.372 198.466 286.409 198.407 287.446 198.39C289.529 198.331 291.604 198.306 293.678 198.298C294.715 198.281 295.752 198.298 296.79 198.306C297.696 198.314 298.603 198.314 299.509 198.331L301.479 195.893C302.141 195.111 302.786 194.32 303.449 193.538C303.553 193.412 303.666 193.286 303.771 193.16C305.305 191.361 306.874 189.586 308.53 187.862Z" fill="black"/>
</g>
</g>
<g style="mix-blend-mode:screen" opacity="0.4">
<g style="mix-blend-mode:screen" opacity="0.4">
<path d="M277.083 196.407H277.092L277.074 196.423C277.075 196.417 277.078 196.411 277.083 196.407Z" fill="white"/>
</g>
</g>
<g style="mix-blend-mode:screen" opacity="0.4">
<g style="mix-blend-mode:screen" opacity="0.4">
<path d="M292.894 175.77C292.807 175.939 292.066 177.343 290.828 179.268C290.175 180.303 289.39 181.488 288.51 182.733C288.065 183.355 287.63 184.003 287.141 184.642C286.653 185.281 286.174 185.937 285.686 186.584C285.18 187.232 284.684 187.871 284.187 188.501C283.69 189.132 283.176 189.729 282.696 190.318C281.72 191.495 280.779 192.571 279.951 193.479C278.399 195.178 277.231 196.279 277.092 196.406L292.885 175.77C292.894 175.762 292.894 175.77 292.894 175.77Z" fill="white"/>
</g>
</g>
<g style="mix-blend-mode:screen" opacity="0.4">
<g style="mix-blend-mode:screen" opacity="0.4">
<path d="M316.487 162.653C314.927 160.979 313.428 159.256 311.964 157.532C310.482 155.791 309.035 154.034 307.597 152.268C306.159 150.502 304.747 148.711 303.361 146.911C302.037 145.221 300.764 143.506 299.465 141.799L295.308 141.723L290.715 141.572C287.655 141.437 284.596 141.286 281.537 141H299.901L316.487 162.653Z" fill="white"/>
</g>
</g>
<g style="mix-blend-mode:screen" opacity="0.3">
<g style="mix-blend-mode:screen" opacity="0.3">
<path d="M318.919 170.061L280.186 143.523H298.585L314.5 164.301L314.518 164.318L318.919 170.061Z" fill="white"/>
</g>
</g>
<path d="M352 170.061L349.063 173.895C349.063 173.897 349.062 173.9 349.06 173.901C349.059 173.903 349.057 173.904 349.054 173.904L339.545 186.316L327.09 170.062L304.83 141.001H329.731L346.317 162.654C346.326 162.662 346.335 162.662 346.335 162.67L352 170.061Z" fill="url(#paint4_linear)"/>
<path d="M339.545 186.316L339.162 186.82L338.377 187.838C338.368 187.846 338.368 187.855 338.36 187.863L333.583 194.103L329.731 199.131H304.83L306.904 196.423C306.905 196.42 306.907 196.417 306.909 196.414C306.911 196.411 306.914 196.408 306.917 196.407L322.71 175.771H322.719V175.763L322.728 175.754L323.26 175.057L326.545 170.76L327.086 170.062L339.545 186.316Z" fill="url(#paint5_linear)"/>
<g style="mix-blend-mode:multiply" opacity="0.15">
<g style="mix-blend-mode:multiply" opacity="0.15">
<path d="M339.545 176.225L339.162 176.73L338.377 177.747C338.369 177.756 338.369 177.764 338.36 177.773L333.584 184.012L333.279 183.449L323.264 164.966L326.55 160.669L327.09 159.971L339.545 176.225Z" fill="black"/>
</g>
</g>
<g style="mix-blend-mode:multiply" opacity="0.25">
<g style="mix-blend-mode:multiply" opacity="0.25">
<path d="M349.054 173.904L339.545 186.316L339.162 186.82L339.04 186.669C337.558 184.811 336.059 182.969 334.595 181.086C333.122 179.219 331.631 177.361 330.184 175.469L326.55 170.76L327.09 170.062L304.83 141.001C306.399 142.8 307.915 144.642 309.441 146.467C310.983 148.291 312.474 150.15 313.981 151.991C316.971 155.699 319.932 159.427 322.863 163.175L327.221 168.826L331.544 174.502C332.991 176.394 334.394 178.311 335.823 180.211C337.087 181.901 338.325 183.608 339.571 185.307L341.515 182.919C342.334 181.91 343.162 180.892 344.008 179.892C345.69 177.889 347.328 175.88 349.054 173.904Z" fill="black"/>
</g>
</g>
<g style="mix-blend-mode:multiply" opacity="0.25">
<g style="mix-blend-mode:multiply" opacity="0.25">
<path d="M338.36 187.862L333.583 194.102L329.731 199.13H304.83C306.904 198.903 308.979 198.76 311.053 198.642C312.09 198.584 313.127 198.533 314.165 198.499C315.202 198.466 316.239 198.407 317.276 198.39C319.359 198.331 321.434 198.306 323.508 198.298C324.545 198.281 325.582 198.298 326.62 198.306C327.526 198.314 328.432 198.314 329.339 198.331L331.309 195.893C331.971 195.111 332.616 194.32 333.278 193.538C333.383 193.412 333.496 193.286 333.601 193.16C335.135 191.361 336.704 189.586 338.36 187.862Z" fill="black"/>
</g>
</g>
<g style="mix-blend-mode:screen" opacity="0.4">
<g style="mix-blend-mode:screen" opacity="0.4">
<path d="M306.917 196.407L306.9 196.423C306.901 196.419 306.903 196.416 306.906 196.413C306.909 196.41 306.913 196.408 306.917 196.407Z" fill="white"/>
</g>
</g>
<g style="mix-blend-mode:screen" opacity="0.4">
<g style="mix-blend-mode:screen" opacity="0.4">
<path d="M322.724 175.77C322.637 175.939 321.896 177.343 320.658 179.268C320.004 180.303 319.22 181.488 318.34 182.733C317.895 183.355 317.459 184.003 316.971 184.642C316.483 185.281 316.004 185.937 315.516 186.584C315.01 187.232 314.513 187.871 314.017 188.501C313.52 189.132 313.006 189.729 312.526 190.318C311.55 191.495 310.609 192.571 309.781 193.479C308.229 195.178 307.061 196.279 306.922 196.406L322.715 175.77C322.724 175.762 322.724 175.77 322.724 175.77Z" fill="white"/>
</g>
</g>
<g style="mix-blend-mode:screen" opacity="0.4">
<g style="mix-blend-mode:screen" opacity="0.4">
<path d="M346.317 162.653C344.757 160.979 343.258 159.256 341.794 157.532C340.312 155.791 338.865 154.034 337.427 152.268C335.989 150.502 334.577 148.711 333.191 146.911C331.866 145.221 330.594 143.506 329.295 141.799L325.138 141.723L320.545 141.572C317.485 141.437 314.426 141.286 311.367 141H329.731L346.317 162.653Z" fill="white"/>
</g>
</g>
<g style="mix-blend-mode:screen" opacity="0.3">
<g style="mix-blend-mode:screen" opacity="0.3">
<path d="M348.753 170.061L310.02 143.523H328.419L344.334 164.301L344.352 164.318L348.753 170.061Z" fill="white"/>
</g>
</g>
<defs>
<filter id="filter0_d" x="122.938" y="182.156" width="210.625" height="69.3438" filterUnits="userSpaceOnUse" color-interpolation-filters="sRGB">
<feFlood flood-opacity="0" result="BackgroundImageFix"/>
<feColorMatrix in="SourceAlpha" type="matrix" values="0 0 0 0 0 0 0 0 0 0 0 0 0 0 0 0 0 0 127 0"/>
<feOffset dy="2"/>
<feGaussianBlur stdDeviation="2"/>
<feColorMatrix type="matrix" values="0 0 0 0 0 0 0 0 0 0 0 0 0 0 0 0 0 0 0.25 0"/>
<feBlend mode="normal" in2="BackgroundImageFix" result="effect1_dropShadow"/>
<feBlend mode="normal" in="SourceGraphic" in2="effect1_dropShadow" result="shape"/>
</filter>
<filter id="filter1_i" x="45.96" y="156.48" width="78.3353" height="37.856" filterUnits="userSpaceOnUse" color-interpolation-filters="sRGB">
<feFlood flood-opacity="0" result="BackgroundImageFix"/>
<feBlend mode="normal" in="SourceGraphic" in2="BackgroundImageFix" result="shape"/>
<feColorMatrix in="SourceAlpha" type="matrix" values="0 0 0 0 0 0 0 0 0 0 0 0 0 0 0 0 0 0 127 0" result="hardAlpha"/>
<feOffset dy="2"/>
<feGaussianBlur stdDeviation="1"/>
<feComposite in2="hardAlpha" operator="arithmetic" k2="-1" k3="1"/>
<feColorMatrix type="matrix" values="0 0 0 0 0 0 0 0 0 0 0 0 0 0 0 0 0 0 0.25 0"/>
<feBlend mode="normal" in2="shape" result="effect1_innerShadow"/>
</filter>
<radialGradient id="paint0_radial" cx="0" cy="0" r="1" gradientUnits="userSpaceOnUse" gradientTransform="translate(200 200) rotate(90) scale(175)">
<stop stop-color="white" stop-opacity="0.18"/>
<stop offset="1" stop-color="white" stop-opacity="0"/>
</radialGradient>
<linearGradient id="paint1_linear" x1="356" y1="177" x2="86" y2="249" gradientUnits="userSpaceOnUse">
<stop stop-color="#FF2727"/>
<stop offset="0.703125" stop-color="#E99922"/>
</linearGradient>
<linearGradient id="paint2_linear" x1="298.585" y1="141.227" x2="298.585" y2="181.92" gradientUnits="userSpaceOnUse">
<stop stop-color="#FCC400"/>
<stop offset="0.162" stop-color="#FBC000"/>
<stop offset="0.307" stop-color="#FBB500"/>
<stop offset="0.446" stop-color="#FBA300"/>
<stop offset="0.581" stop-color="#FA8900"/>
<stop offset="0.712" stop-color="#FA6800"/>
<stop offset="0.842" stop-color="#F93F00"/>
<stop offset="0.967" stop-color="#F81000"/>
<stop offset="1" stop-color="#F80300"/>
</linearGradient>
<linearGradient id="paint3_linear" x1="292.358" y1="199.887" x2="292.358" y2="177.416" gradientUnits="userSpaceOnUse">
<stop stop-color="#9A3D2D"/>
<stop offset="1" stop-color="#1E4450"/>
</linearGradient>
<linearGradient id="paint4_linear" x1="328.415" y1="141.227" x2="328.415" y2="181.92" gradientUnits="userSpaceOnUse">
<stop stop-color="#FCC400"/>
<stop offset="0.162" stop-color="#FBC000"/>
<stop offset="0.307" stop-color="#FBB500"/>
<stop offset="0.446" stop-color="#FBA300"/>
<stop offset="0.581" stop-color="#FA8900"/>
<stop offset="0.712" stop-color="#FA6800"/>
<stop offset="0.842" stop-color="#F93F00"/>
<stop offset="0.967" stop-color="#F81000"/>
<stop offset="1" stop-color="#F80300"/>
</linearGradient>
<linearGradient id="paint5_linear" x1="322.187" y1="199.887" x2="322.187" y2="177.416" gradientUnits="userSpaceOnUse">
<stop stop-color="#9A3D2D"/>
<stop offset="1" stop-color="#1E4450"/>
</linearGradient>
</defs>
</svg>
